# xmcd
#
# Track frame offsets: 
#        150
#        14160
#        33299
#        55734
#        75558
#        91962
#        109329
#        129756
#        143872
#        164306
#        182845
#        202189
#
# Disc length: 2962 seconds
#
# Revision: 0
# Processed by: cddbd v1.5.2PL0 Copyright (c) Steve Scherf et al.
# Submitted via: ExactAudioCopy v1.2
#
DISCID=a00b900c
DTITLE=Charlie Landsborough - Further Down The Road
DYEAR=1997
DGENRE=Country
TTITLE0=Further Down The Road
TTITLE1=Love You Every Second
TTITLE2=Saints
TTITLE3=It's Raining Outside
TTITLE4=God Knocking On Your Door
TTITLE5=The Twelfth Of Never
TTITLE6=Uninvited
TTITLE7=Loreto
TTITLE8=I Want Someone Who Will Love Me
TTITLE9=The Green Hills Are Rolling Still
TTITLE10=Oh, Nancy
TTITLE11=In The Bleak Midwinter
EXTD=
EXTT0=
EXTT1=
EXTT2=
EXTT3=
EXTT4=
EXTT5=
EXTT6=
EXTT7=
EXTT8=
EXTT9=
EXTT10=
EXTT11=
PLAYORDER=
